# Blender v2.76 (sub 0) OBJ File: 'nav.blend'
# www.blender.org
mtllib nav.mtl
o Plane
v 0.000000 0.000000 -2.408533
v -0.578290 0.000000 0.000000
v 0.000000 0.000000 0.624434
v 0.000000 0.000006 -2.402379
v 0.578290 0.000000 -0.003498
v 0.000000 0.578290 0.000000
v 0.000000 -0.578290 0.000000
v 0.000000 0.000006 -2.402379
v 0.000000 -0.578290 0.000000
vt 0.000267 0.494180
vt 0.041374 0.249202
vt 0.750798 0.494180
vt 0.000267 0.248669
vt 0.742292 0.124468
vt 0.000267 0.000267
vt 0.000267 0.988456
vt 0.000267 0.740051
vt 0.739919 0.861135
vt 0.750798 0.494713
vt 0.042407 0.739518
vt 0.000267 0.494713
vt 0.742825 0.227421
vt 0.866214 0.000267
vt 0.991230 0.227421
vt 0.751331 0.734950
vt 0.875532 0.508239
vt 0.999734 0.734950
vt 0.751331 0.249202
vt 0.969184 0.368551
vt 0.751331 0.507706
vt 0.880386 0.958332
vt 0.740452 0.740051
vt 0.998955 0.740051
vn -0.697100 -0.697100 -0.167800
vn -0.697100 0.697100 -0.167400
vn 0.696600 0.697600 -0.167900
vn 0.696600 -0.697600 -0.167900
vn 0.593700 0.590400 0.546800
vn -0.591600 0.591600 0.547800
vn -0.591600 -0.591600 0.547800
vn 0.593700 -0.590400 0.546800
usemtl Material
s off
f 9/1/1 2/2/1 8/3/1
f 6/4/2 1/5/2 2/6/2
f 6/7/3 5/8/3 8/9/3
f 8/10/4 5/11/4 9/12/4
f 6/13/5 3/14/5 5/15/5
f 2/16/6 3/17/6 6/18/6
f 2/19/7 9/20/7 3/21/7
f 5/22/8 3/23/8 9/24/8
l 4 5
l 4 6
l 3 7
l 4 8
l 7 9
