# Blender v2.76 (sub 0) OBJ File: 'tank.blend'
# www.blender.org
mtllib tank.mtl
o Cylinder
v 1.811309 0.435221 -1.386119
v 1.599775 0.435221 0.941044
v 0.850000 0.016693 1.000000
v -0.850000 0.337673 -1.445076
v -0.850000 0.016693 1.000000
v -1.811309 0.435221 -1.386120
v -1.599775 0.435221 0.941044
v -0.850000 1.050209 1.000000
v 0.850000 1.050209 1.000000
v 0.253324 0.177121 2.253588
v 0.506649 0.435221 2.479118
v -0.253325 0.177121 2.253588
v -0.506649 0.435221 2.479118
v 0.850000 0.337673 -1.445076
v -0.850000 1.050209 -1.445076
v 0.850000 1.050209 -1.445076
v 0.637500 0.525618 -1.768436
v -0.637500 0.525619 -1.768436
v -0.637500 0.934826 -1.768436
v 0.637500 0.934826 -1.768436
v -0.425000 0.979283 -0.304676
v -0.425000 0.979283 -1.304676
v 0.425000 0.979283 -0.304676
v 0.425000 0.979283 -1.304676
v 0.850000 1.257937 -0.304676
v 0.850000 1.257937 -1.304676
v -0.850000 1.257937 -1.304676
v -0.850000 1.257937 -0.304676
v -0.425000 1.608994 -1.304676
v -0.425000 1.608994 -0.304676
v 0.425000 1.608994 -1.304676
v 0.425000 1.608994 -0.304676
v -0.425000 1.257937 0.470575
v 0.425000 1.257937 0.470575
v 0.425000 1.257937 -1.669813
v -0.425000 1.257937 -1.669813
v 0.000000 1.430101 -0.135328
v 0.000000 1.430101 1.108811
v 0.063809 1.386760 -0.135327
v 0.063809 1.386760 1.108811
v 0.063809 1.300077 -0.135327
v 0.063809 1.300077 1.108811
v 0.000000 1.256736 -0.135328
v 0.000000 1.256736 1.108811
v -0.063809 1.300077 -0.135328
v -0.063809 1.300077 1.108811
v -0.063809 1.386760 -0.135328
v -0.063809 1.386760 1.108811
v 1.282186 0.542012 -2.001398
v -1.282186 0.542012 -2.001398
v 0.319246 0.848871 -1.858009
v 0.319246 0.904971 -1.743959
v 0.525586 0.815623 -1.743959
v 0.456716 0.663206 -1.858009
v 0.525586 0.636928 -1.743959
v 0.319246 0.547580 -1.743959
v 0.112907 0.636928 -1.743959
v 0.181777 0.789344 -1.858009
v 0.112907 0.815623 -1.743959
v 0.319246 0.860325 -1.858009
v 0.474034 0.793300 -1.858009
v 0.474034 0.659250 -1.858009
v 0.319246 0.592225 -1.858009
v 0.164459 0.659250 -1.858009
v 0.164459 0.793300 -1.858009
v 0.456716 0.789344 -1.858009
v 0.319246 0.603680 -1.858009
v 0.181777 0.663206 -1.858009
v 0.319246 0.848871 -1.822535
v 0.456716 0.789344 -1.822535
v 0.456716 0.663206 -1.822535
v 0.319246 0.603680 -1.822535
v 0.181777 0.663206 -1.822535
v 0.181777 0.789344 -1.822535
v -0.319248 0.904971 -1.743959
v -0.181778 0.789344 -1.858009
v -0.112908 0.815623 -1.743959
v -0.181778 0.663206 -1.858009
v -0.112908 0.636928 -1.743959
v -0.319248 0.547580 -1.743959
v -0.525588 0.636928 -1.743959
v -0.525588 0.815623 -1.743959
v -0.319248 0.860325 -1.858009
v -0.164460 0.793300 -1.858009
v -0.164460 0.659250 -1.858009
v -0.319248 0.592225 -1.858009
v -0.474036 0.659250 -1.858009
v -0.474036 0.793300 -1.858009
v -0.319248 0.848871 -1.858009
v -0.319248 0.603680 -1.858009
v -0.456718 0.663206 -1.858009
v -0.456718 0.789344 -1.858009
v -0.319248 0.848871 -1.822535
v -0.181778 0.789344 -1.822535
v -0.181778 0.663206 -1.822535
v -0.319248 0.603680 -1.822535
v -0.456718 0.663206 -1.822535
v -0.456718 0.789344 -1.822535
v 1.439797 0.435221 -0.222538
v 0.765000 0.235305 -0.222538
v -0.765000 0.235305 -0.222538
v -1.439797 0.435221 -0.222538
v -0.765000 1.050209 -0.222538
v 0.765000 1.050209 -0.222538
vt 0.332790 0.920743
vt 0.186512 0.938847
vt 0.184609 0.836255
vt 0.181331 0.639803
vt 0.331659 0.641344
vt 0.180572 0.536318
vt 0.330412 0.551568
vt 0.334437 0.462504
vt 0.187873 0.465591
vt 0.197202 0.351743
vt 0.040482 0.712172
vt 0.000203 0.677687
vt 0.192296 0.161676
vt 0.178177 0.045714
vt 0.329987 0.044529
vt 0.338203 0.161063
vt 0.001356 0.327032
vt 0.000203 0.198841
vt 0.042206 0.770316
vt 0.001509 0.805073
vt 0.835706 0.936097
vt 0.714768 0.931042
vt 0.719615 0.890209
vt 0.920090 0.299849
vt 0.759405 0.305687
vt 0.763246 0.224607
vt 0.911690 0.100299
vt 0.765026 0.097510
vt 0.760362 0.018639
vt 0.736666 0.845627
vt 0.745978 0.752403
vt 0.895053 0.756688
vt 0.898224 0.633177
vt 0.750753 0.622374
vt 0.746039 0.533916
vt 0.978054 0.622344
vt 0.978054 0.768099
vt 0.606504 0.759269
vt 0.610380 0.609424
vt 0.634860 0.231514
vt 0.634860 0.091344
vt 0.909086 0.222496
vt 0.981232 0.092626
vt 0.914880 0.544747
vt 0.981149 0.229377
vt 0.920931 0.021705
vt 0.909789 0.843889
vt 0.801846 0.393432
vt 0.801849 0.384028
vt 0.953529 0.384081
vt 0.801853 0.373460
vt 0.953532 0.373513
vt 0.801856 0.364056
vt 0.801836 0.422809
vt 0.801839 0.413405
vt 0.953518 0.413457
vt 0.780133 0.402273
vt 0.780133 0.391706
vt 0.795691 0.402273
vt 0.801842 0.402837
vt 0.953525 0.393485
vt 0.953522 0.402889
vt 0.700992 0.466841
vt 0.663913 0.539373
vt 0.647157 0.502566
vt 0.600121 0.539373
vt 0.616317 0.505148
vt 0.559989 0.473002
vt 0.596884 0.399635
vt 0.613256 0.436679
vt 0.644295 0.435214
vt 0.660756 0.400938
vt 0.643469 0.438971
vt 0.660203 0.467995
vt 0.640675 0.492296
vt 0.610758 0.470880
vt 0.650580 0.468954
vt 0.614516 0.440838
vt 0.619793 0.446874
vt 0.700992 0.326269
vt 0.663913 0.398802
vt 0.647157 0.361995
vt 0.600121 0.398802
vt 0.616317 0.364576
vt 0.559989 0.332430
vt 0.596884 0.259064
vt 0.613256 0.296107
vt 0.644295 0.294642
vt 0.660756 0.260367
vt 0.645960 0.357855
vt 0.643469 0.298399
vt 0.639915 0.306225
vt 0.619793 0.306302
vt 0.640675 0.351725
vt 0.610758 0.330308
vt 0.650580 0.328382
vt 0.658097 0.327515
vt 0.614516 0.300266
vt 0.486591 0.627967
vt 0.875829 0.859580
vt 0.881715 0.974449
vt 0.670969 0.974449
vt 0.670115 0.857074
vt 0.829314 0.896592
vt 0.491689 0.146231
vt 0.480158 0.000203
vt 0.564782 0.062230
vt 0.993596 0.935687
vt 0.482476 0.504106
vt 0.491925 0.360556
vt 0.564782 0.442108
vt 0.480587 0.965975
vt 0.486768 0.843634
vt 0.560472 0.900052
vt 0.554677 0.941633
vt 0.479200 0.504512
vt 0.560472 0.570315
vt 0.645960 0.498427
vt 0.658097 0.468087
vt 0.617184 0.501366
vt 0.600955 0.471817
vt 0.603069 0.471721
vt 0.639915 0.446797
vt 0.620631 0.493554
vt 0.660203 0.327424
vt 0.617184 0.360794
vt 0.600955 0.331245
vt 0.603069 0.331150
vt 0.620631 0.352982
vt 0.339477 0.348493
vt 0.332372 0.832128
vt 0.953535 0.364108
vt 0.953515 0.422861
vt 0.795691 0.391706
vt 0.787912 0.407557
vt 0.787912 0.386422
vn 0.482400 -0.873500 -0.066300
vn -0.000000 -0.984400 -0.176000
vn -0.482400 -0.873500 -0.066300
vn -0.627800 0.773600 -0.086300
vn -0.504200 -0.793200 0.341500
vn 0.627800 0.773600 -0.086300
vn 0.000000 1.000000 -0.000000
vn 0.000000 0.923400 0.383900
vn -0.000000 -0.991900 0.126900
vn 0.594400 0.684200 0.422500
vn 0.478600 -0.809500 0.340100
vn 0.000000 -0.658000 0.753000
vn 0.000000 0.000000 -1.000000
vn 0.548300 -0.836300 0.000000
vn -0.548300 -0.836300 0.000000
vn -0.636800 0.771000 0.000000
vn 0.636800 0.771000 0.000000
vn 0.000000 0.720900 -0.693100
vn -0.000000 0.911000 0.412500
vn -0.000000 -0.941100 0.338200
vn 0.601300 0.727900 0.329600
vn 0.525100 -0.800900 0.287900
vn -0.525100 -0.800900 0.287900
vn -0.601300 0.727900 0.329600
vn -0.000000 -0.795000 -0.606700
vn 0.511600 0.619400 -0.595500
vn 0.462200 -0.704900 -0.538000
vn -0.462200 -0.704900 -0.538000
vn -0.511600 0.619400 -0.595500
vn 0.561900 0.827200 -0.000000
vn 1.000000 0.000000 0.000000
vn 0.561900 -0.827200 0.000000
vn -0.561900 -0.827200 0.000000
vn 0.000000 0.000000 1.000000
vn -0.561900 0.827200 -0.000000
vn -1.000000 -0.000000 -0.000000
vn -0.594400 0.684200 0.422500
vn 0.374000 0.863600 -0.338100
vn 0.911200 -0.000000 -0.411900
vn 0.374000 -0.863600 -0.338100
vn -0.374000 -0.863600 -0.338100
vn -0.374000 0.863600 -0.338100
vn -0.911200 0.000000 -0.411900
vn 0.397400 0.917700 0.000000
vn 0.397400 -0.917700 0.000000
vn -0.283500 -0.957100 -0.060400
vn 0.835700 0.000000 -0.549200
vn -0.000000 -0.864600 -0.502500
vn -0.835700 0.000000 -0.549200
vn 0.000000 0.941800 -0.336100
vn 0.525200 0.790800 -0.314400
vn -0.789700 0.000000 -0.613500
vn -0.525200 0.790800 -0.314400
vn 0.113400 -0.957900 -0.263800
vn 0.789700 -0.000000 -0.613500
vn -0.113400 -0.957900 -0.263800
vn -0.397400 0.917700 0.000000
vn -0.397400 -0.917700 0.000000
vn 0.672900 0.738300 0.046800
vn -0.672900 0.738300 0.046800
vn -0.000000 -0.996500 -0.083400
vn 0.283500 -0.957100 -0.060400
vn 0.279000 -0.941700 -0.187800
vn -0.279000 -0.941700 -0.187800
vn -0.672900 0.738300 -0.046800
vn -0.478600 -0.809500 0.340100
vn 0.672900 0.738300 -0.046800
vn 0.504200 -0.793200 0.341500
vn -0.099000 -0.994600 0.031600
vn 0.524000 0.835100 0.167300
vn -0.524000 0.835100 0.167300
vn 0.099000 -0.994600 0.031600
usemtl Material.001
s off
f 99/1/1 2/2/1 3/3/1
f 3/3/2 5/4/2 101/5/2
f 5/4/3 7/6/3 102/7/3
f 102/8/4 7/9/4 8/10/4
f 5/4/5 12/11/5 13/12/5
f 9/13/6 2/14/6 99/15/6
f 8/10/7 9/13/7 104/16/7
f 8/10/8 13/17/8 11/18/8
f 3/3/9 10/19/9 12/11/9
f 2/14/10 9/13/10 11/18/10
f 3/3/11 2/2/11 11/20/11
f 11/20/12 13/12/12 12/11/12
f 17/21/13 18/22/13 19/23/13
f 26/24/14 25/25/14 23/26/14
f 22/27/15 21/28/15 28/29/15
f 28/30/16 30/31/16 29/32/16
f 31/33/17 32/34/17 25/35/17
f 35/36/18 36/37/18 29/32/18
f 30/31/7 32/34/7 31/33/7
f 33/38/19 34/39/19 32/34/19
f 23/26/20 34/40/20 33/41/20
f 32/34/21 34/39/21 25/35/21
f 25/25/22 34/40/22 23/26/22
f 21/28/23 33/41/23 28/29/23
f 30/31/24 28/30/24 33/38/24
f 24/42/25 22/27/25 36/43/25
f 31/33/26 26/44/26 35/36/26
f 24/42/27 35/45/27 26/24/27
f 27/46/28 36/43/28 22/27/28
f 29/32/29 36/37/29 27/47/29
f 38/48/30 40/49/30 39/50/30
f 40/49/31 42/51/31 41/52/31
f 41/52/32 42/51/32 44/53/32
f 44/54/33 46/55/33 45/56/33
f 48/57/34 46/58/34 40/59/34
f 48/60/35 38/48/35 37/61/35
f 46/55/36 48/60/36 47/62/36
f 8/10/37 7/9/37 13/17/37
f 52/63/38 53/64/38 61/65/38
f 61/65/39 53/64/39 55/66/39
f 62/67/40 55/66/40 56/68/40
f 56/68/41 57/69/41 64/70/41
f 65/71/42 59/72/42 52/63/42
f 57/69/43 59/72/43 65/71/43
f 58/73/13 65/71/13 60/74/13
f 70/75/13 72/76/13 69/77/13
f 68/78/44 73/79/44 72/76/44
f 75/80/38 77/81/38 84/82/38
f 77/81/39 79/83/39 85/84/39
f 85/84/40 79/83/40 80/85/40
f 80/85/41 81/86/41 87/87/41
f 88/88/42 82/89/42 75/80/42
f 87/87/43 81/86/43 82/89/43
f 76/90/13 84/82/13 85/84/13
f 92/91/31 98/92/31 97/93/31
f 94/94/13 96/95/13 93/96/13
f 89/97/45 93/96/45 98/92/45
f 91/98/44 97/93/44 96/95/44
f 4/99/46 101/5/46 102/7/46
f 16/100/47 14/101/47 17/21/47
f 4/102/48 18/22/48 17/21/48
f 15/103/49 19/23/49 18/22/49
f 16/100/50 20/104/50 19/23/50
f 16/105/51 1/106/51 49/107/51
f 14/101/52 16/100/52 49/108/52
f 6/109/53 15/110/53 50/111/53
f 1/112/54 14/113/54 49/114/54
f 15/103/55 4/102/55 50/115/55
f 4/99/56 6/116/56 50/117/56
f 66/118/13 51/119/13 60/74/13
f 66/118/13 61/65/13 62/67/13
f 54/120/13 62/67/13 63/121/13
f 68/78/13 67/122/13 63/121/13
f 58/73/13 68/78/13 64/70/13
f 58/73/31 74/123/31 73/79/31
f 67/122/57 72/76/57 71/124/57
f 66/118/58 70/75/58 69/77/58
f 51/119/45 69/77/45 74/123/45
f 54/120/36 71/124/36 70/75/36
f 76/90/13 89/97/13 83/125/13
f 78/126/13 85/84/13 86/127/13
f 91/98/13 90/128/13 86/127/13
f 92/91/13 91/98/13 87/87/13
f 92/91/13 88/88/13 83/125/13
f 90/128/57 96/95/57 95/129/57
f 76/90/58 94/94/58 93/96/58
f 78/126/36 95/129/36 94/94/36
f 15/110/7 103/130/7 104/16/7
f 16/105/59 104/16/59 99/15/59
f 102/8/60 103/130/60 15/110/60
f 100/131/61 101/5/61 4/99/61
f 99/1/62 100/131/62 14/113/62
f 100/131/63 99/1/63 3/3/63
f 100/131/2 3/3/2 101/5/2
f 101/5/64 5/4/64 102/7/64
f 103/130/65 102/8/65 8/10/65
f 7/6/66 5/4/66 13/12/66
f 104/16/67 9/13/67 99/15/67
f 103/130/7 8/10/7 104/16/7
f 9/13/8 8/10/8 11/18/8
f 5/4/9 3/3/9 12/11/9
f 10/19/68 3/3/68 11/20/68
f 10/19/12 11/20/12 12/11/12
f 20/104/13 17/21/13 19/23/13
f 24/42/14 26/24/14 23/26/14
f 27/46/15 22/27/15 28/29/15
f 27/47/16 28/30/16 29/32/16
f 26/44/17 31/33/17 25/35/17
f 31/33/18 35/36/18 29/32/18
f 29/32/7 30/31/7 31/33/7
f 30/31/19 33/38/19 32/34/19
f 21/28/20 23/26/20 33/41/20
f 35/45/25 24/42/25 36/43/25
f 37/61/30 38/48/30 39/50/30
f 39/50/31 40/49/31 41/52/31
f 43/132/32 41/52/32 44/53/32
f 43/133/33 44/54/33 45/56/33
f 42/134/34 40/59/34 46/58/34
f 38/135/34 48/57/34 40/59/34
f 46/58/34 44/136/34 42/134/34
f 47/62/35 48/60/35 37/61/35
f 45/56/36 46/55/36 47/62/36
f 60/74/38 52/63/38 61/65/38
f 62/67/39 61/65/39 55/66/39
f 63/121/40 62/67/40 56/68/40
f 63/121/41 56/68/41 64/70/41
f 60/74/42 65/71/42 52/63/42
f 64/70/43 57/69/43 65/71/43
f 51/119/13 58/73/13 60/74/13
f 74/123/13 69/77/13 72/76/13
f 70/75/13 71/124/13 72/76/13
f 72/76/13 73/79/13 74/123/13
f 67/122/44 68/78/44 72/76/44
f 83/125/38 75/80/38 84/82/38
f 84/82/39 77/81/39 85/84/39
f 86/127/40 85/84/40 80/85/40
f 86/127/41 80/85/41 87/87/41
f 83/125/42 88/88/42 75/80/42
f 88/88/43 87/87/43 82/89/43
f 78/126/13 76/90/13 85/84/13
f 91/98/31 92/91/31 97/93/31
f 98/92/13 93/96/13 96/95/13
f 94/94/13 95/129/13 96/95/13
f 96/95/13 97/93/13 98/92/13
f 92/91/45 89/97/45 98/92/45
f 90/128/44 91/98/44 96/95/44
f 6/116/69 4/99/69 102/7/69
f 20/104/47 16/100/47 17/21/47
f 14/101/48 4/102/48 17/21/48
f 4/102/49 15/103/49 18/22/49
f 15/103/50 16/100/50 19/23/50
f 61/65/13 66/118/13 60/74/13
f 54/120/13 66/118/13 62/67/13
f 67/122/13 54/120/13 63/121/13
f 64/70/13 68/78/13 63/121/13
f 65/71/13 58/73/13 64/70/13
f 68/78/31 58/73/31 73/79/31
f 54/120/57 67/122/57 71/124/57
f 51/119/58 66/118/58 69/77/58
f 58/73/45 51/119/45 74/123/45
f 66/118/36 54/120/36 70/75/36
f 84/82/13 76/90/13 83/125/13
f 90/128/13 78/126/13 86/127/13
f 87/87/13 91/98/13 86/127/13
f 88/88/13 92/91/13 87/87/13
f 89/97/13 92/91/13 83/125/13
f 78/126/57 90/128/57 95/129/57
f 89/97/58 76/90/58 93/96/58
f 76/90/36 78/126/36 94/94/36
f 16/105/7 15/110/7 104/16/7
f 1/106/70 16/105/70 99/15/70
f 6/109/71 102/8/71 15/110/71
f 14/113/61 100/131/61 4/99/61
f 1/112/72 99/1/72 14/113/72
